<svg width="1024" height="1024" viewBox="0 0 524 524" fill="none" xmlns="http://www.w3.org/2000/svg">
<g clip-path="url(#clip0_116_2)">
<rect width="524" height="524" rx="115" fill="url(#paint0_linear_116_2)"/>
<path d="M236.424 392L246.694 373.213C246.888 372.889 247.05 372.501 247.083 372.08C247.18 370.817 246.273 369.683 245.042 369.488C224.112 366.347 204.641 357.18 188.766 343.026C188.312 342.605 187.729 342.41 187.146 342.41C186.53 342.41 185.915 342.637 185.429 343.123L151.605 376.906L146.065 371.367L179.856 337.584C180.764 336.677 180.796 335.22 179.954 334.248C165.763 318.377 156.562 298.91 153.42 277.954C153.29 277.176 152.804 276.497 152.091 276.14C151.767 275.978 151.378 275.881 151.022 275.881C150.633 275.881 150.212 275.978 149.856 276.172L131 286.538V236.365L149.888 246.633C150.245 246.827 150.666 246.924 151.054 246.924C151.411 246.924 151.8 246.827 152.124 246.665C152.836 246.309 153.322 245.629 153.452 244.851C160.58 198.112 198.259 160.54 245.042 153.479C246.305 153.284 247.213 152.151 247.115 150.888C247.083 150.434 246.921 150.013 246.694 149.689L236.456 131H286.641L276.435 149.721C276.209 150.045 276.047 150.467 276.014 150.888C275.917 152.151 276.792 153.284 278.055 153.479C293.736 155.876 308.899 161.738 322.149 170.548L306.858 185.836C298.304 187.65 288.617 191.375 278.768 196.655C262.925 205.141 246.759 217.385 232.082 232.057C226.38 237.726 221.035 243.653 216.142 249.71C214.523 247.377 213.032 245.013 211.607 242.713C216.239 237.11 221.229 231.636 226.445 226.453C234.415 218.485 242.871 211.165 251.553 204.688C252.202 204.202 252.558 203.424 252.526 202.615C252.493 201.805 252.04 201.06 251.359 200.639C249.027 199.213 246.661 197.886 244.329 196.655C238.983 193.805 220.386 184.476 204.77 184.476C198.162 184.476 193.075 186.225 189.641 189.626C182.934 196.331 182.772 210.291 189.22 227.943C196.121 246.763 209.727 267.492 227.579 286.343C228.033 286.829 228.648 287.088 229.296 287.088H229.329C229.977 287.088 230.592 286.829 231.045 286.375L243.875 273.549C244.62 272.804 244.815 271.638 244.297 270.699C242.806 267.881 241.996 264.706 241.996 261.532C241.996 250.779 250.744 242.033 261.5 242.033C264.707 242.033 267.883 242.811 270.669 244.333C271.025 244.527 271.414 244.625 271.803 244.625C272.418 244.625 273.066 244.365 273.519 243.912L286.382 231.085C286.835 230.632 287.094 229.984 287.094 229.336C287.094 228.689 286.803 228.041 286.349 227.62C282.137 223.636 277.796 219.846 273.423 216.283C275.787 214.729 278.185 213.239 280.583 211.846C284.47 215.085 288.326 218.518 292.084 222.049C292.538 222.502 293.153 222.729 293.769 222.729C294.384 222.729 295 222.502 295.485 222.016L350.401 167.147C350.854 166.694 351.113 166.079 351.113 165.431C351.113 164.783 350.854 164.167 350.401 163.714L337.96 151.276L387.172 141.494L343.208 185.448C342.301 186.355 342.269 187.812 343.111 188.784C357.236 204.623 366.406 223.992 369.58 244.851C369.71 245.629 370.196 246.341 370.909 246.698C371.265 246.892 371.654 246.957 372.043 246.957C372.431 246.957 372.787 246.859 373.144 246.665L392 236.301V286.44L373.144 276.011C372.787 275.816 372.366 275.719 371.978 275.719C371.298 275.719 370.617 276.011 370.163 276.529C369.84 276.918 369.645 277.371 369.58 277.857C369.483 278.732 359.116 355.82 277.828 369.423C276.565 369.618 275.691 370.752 275.82 372.015C275.885 372.727 276.241 373.343 276.759 373.732L286.641 391.903H236.424V392ZM244.588 335.511C244.232 335.511 243.843 335.608 243.519 335.77C232.601 341.147 222.395 344.548 213.162 345.876C212.125 346.038 211.315 346.816 211.12 347.852C210.926 348.889 211.412 349.925 212.32 350.411C227.288 358.703 244.297 363.075 261.5 363.075C278.703 363.075 295.712 358.703 310.68 350.411C311.588 349.893 312.073 348.889 311.879 347.852C311.685 346.816 310.875 346.038 309.838 345.876C300.604 344.548 290.399 341.147 279.481 335.77C279.157 335.608 278.768 335.511 278.412 335.511C277.958 335.511 277.505 335.641 277.116 335.867C276.403 336.321 275.982 337.098 275.982 337.941V349.374C271.219 350.151 266.36 350.54 261.5 350.54C256.64 350.54 251.748 350.151 246.953 349.342V337.908C246.953 337.066 246.532 336.289 245.819 335.835C245.43 335.576 244.977 335.479 244.523 335.479L244.588 335.511ZM251.165 278.44C250.549 278.44 249.901 278.699 249.448 279.153L236.618 291.979C236.164 292.432 235.906 293.08 235.906 293.728C235.906 294.376 236.197 295.023 236.683 295.445C264.383 321.616 296.295 338.523 318.002 338.523C323.802 338.523 328.435 337.293 331.804 334.863C331.901 334.799 331.998 334.734 332.063 334.637C333.003 333.729 333.942 332.79 334.849 331.819C334.914 331.754 334.979 331.657 335.044 331.592C346.254 316.563 329.957 284.788 322.441 271.865C322.02 271.152 321.307 270.699 320.464 270.666C320.432 270.666 320.367 270.666 320.335 270.666C319.558 270.666 318.845 271.022 318.391 271.638C311.944 280.254 304.655 288.675 296.652 296.643C291.403 301.89 285.928 306.846 280.356 311.478C278.023 310.053 275.691 308.53 273.325 306.943C279.384 302.02 285.345 296.675 291.015 291.007C311.134 270.893 326.361 248.511 333.877 228.008C338.543 215.214 339.806 203.975 337.344 196.331C337.085 195.521 336.437 194.905 335.595 194.711C335.4 194.679 335.206 194.646 335.012 194.646C334.364 194.646 333.748 194.905 333.294 195.359L301.026 227.587C300.086 228.527 300.086 230.017 300.993 230.988C304.557 234.745 307.991 238.6 311.231 242.487C309.838 244.884 308.347 247.248 306.793 249.613C303.229 245.24 299.406 240.9 295.421 236.689C294.967 236.203 294.352 235.944 293.704 235.944H293.671C293.023 235.944 292.408 236.203 291.954 236.657L279.125 249.483C278.38 250.228 278.185 251.394 278.703 252.366C280.226 255.183 281.004 258.358 281.004 261.564C281.004 272.318 272.256 281.063 261.5 281.063C258.292 281.063 255.085 280.254 252.266 278.764C251.91 278.569 251.522 278.472 251.132 278.472L251.165 278.44ZM229.264 300.335C228.648 300.335 228.033 300.562 227.546 301.048L195.278 333.277C194.695 333.859 194.436 334.734 194.63 335.576C194.825 336.385 195.44 337.066 196.25 337.325C198.777 338.135 201.758 338.556 205.095 338.556C215.786 338.556 229.717 334.248 244.297 326.442C246.532 325.244 248.897 323.915 251.327 322.426C252.007 322.005 252.461 321.259 252.493 320.45C252.526 319.64 252.169 318.863 251.522 318.377C244.491 313.13 237.558 307.267 230.916 300.983C230.462 300.53 229.847 300.303 229.231 300.303L229.264 300.335ZM202.568 270.569C201.758 270.601 201.013 271.055 200.591 271.735C195.796 279.703 191.941 287.574 189.187 295.121C184.522 307.882 183.291 319.09 185.688 326.734C185.947 327.543 186.595 328.159 187.438 328.353C187.632 328.386 187.826 328.418 188.021 328.418C188.669 328.418 189.284 328.159 189.738 327.705L221.974 295.51C222.914 294.57 222.914 293.08 222.006 292.108C215.721 285.469 209.857 278.57 204.609 271.541C204.155 270.925 203.41 270.569 202.665 270.569C202.633 270.569 202.6 270.569 202.535 270.569H202.568ZM174.738 210.971C173.863 210.971 173.053 211.425 172.599 212.234C164.273 227.231 159.834 244.268 159.834 261.5C159.834 278.732 164.241 295.801 172.599 310.797C173.02 311.575 173.863 312.061 174.705 312.061C174.835 312.061 174.997 312.061 175.159 312.028C176.195 311.834 176.973 311.024 177.135 309.988C178.463 300.725 181.865 290.489 187.276 279.574C187.632 278.828 187.6 277.922 187.146 277.209C186.692 276.497 185.915 276.076 185.073 276.076H173.506C172.729 271.282 172.308 266.391 172.308 261.532C172.308 256.674 172.696 251.848 173.474 247.086H185.04C185.883 247.086 186.66 246.665 187.114 245.952C187.567 245.24 187.6 244.365 187.243 243.588C181.833 232.608 178.431 222.372 177.103 213.109C176.973 212.073 176.163 211.262 175.126 211.068C174.964 211.068 174.835 211.036 174.673 211.036L174.738 210.971ZM337.96 276.043C337.117 276.043 336.34 276.464 335.886 277.176C335.433 277.889 335.4 278.796 335.757 279.541C341.135 290.456 344.569 300.66 345.897 309.891C346.059 310.927 346.837 311.737 347.874 311.931C348.035 311.931 348.165 311.964 348.327 311.964C349.202 311.964 350.012 311.51 350.465 310.701C358.792 295.736 363.198 278.699 363.198 261.468C363.198 244.236 358.792 227.264 350.498 212.299C350.077 211.522 349.234 211.036 348.359 211.036C348.23 211.036 348.068 211.036 347.906 211.068C346.869 211.262 346.091 212.073 345.929 213.109C344.601 222.34 341.199 232.576 335.822 243.523C335.465 244.268 335.497 245.175 335.951 245.888C336.405 246.6 337.182 247.021 338.025 247.021H349.526C350.303 251.783 350.692 256.641 350.692 261.468C350.692 266.293 350.303 271.217 349.493 276.011H337.992L337.96 276.043ZM276.047 185.189C276.047 186.031 276.468 186.808 277.18 187.262C277.57 187.521 278.023 187.618 278.476 187.618C278.833 187.618 279.221 187.521 279.546 187.359C290.528 181.95 300.799 178.516 310.097 177.221C311.134 177.091 311.944 176.281 312.138 175.277C312.333 174.241 311.846 173.204 310.94 172.718C295.907 164.362 278.833 159.924 261.532 159.924C244.232 159.924 227.158 164.362 212.125 172.718C211.218 173.237 210.732 174.273 210.926 175.277C211.12 176.314 211.93 177.091 212.967 177.253C222.266 178.549 232.536 181.982 243.551 187.391C243.875 187.553 244.264 187.65 244.62 187.65C245.074 187.65 245.528 187.521 245.916 187.294C246.629 186.841 247.05 186.063 247.05 185.221V173.625C251.813 172.848 256.672 172.459 261.532 172.459C266.392 172.459 271.284 172.848 276.079 173.658V185.253L276.047 185.189Z" fill="#B9915B"/>
</g>
<defs>
<linearGradient id="paint0_linear_116_2" x1="4.22378e-06" y1="-142.5" x2="618" y2="931" gradientUnits="userSpaceOnUse">
<stop stop-color="#D9D9D9"/>
<stop offset="1" stop-color="white"/>
</linearGradient>
<clipPath id="clip0_116_2">
<rect width="524" height="524" rx="115" fill="white"/>
</clipPath>
</defs>
</svg>
